<svg id="my-svg" width="100%" xmlns="http://www.w3.org/2000/svg" xmlns:xlink="http://www.w3.org/1999/xlink" class="flowchart" style="max-width: 1841.41px; background-color: white;" viewBox="0 0 1841.40625 998" role="graphics-document document" aria-roledescription="flowchart-v2"><style>#my-svg{font-family:"trebuchet ms",verdana,arial,sans-serif;font-size:16px;fill:#333;}@keyframes edge-animation-frame{from{stroke-dashoffset:0;}}@keyframes dash{to{stroke-dashoffset:0;}}#my-svg .edge-animation-slow{stroke-dasharray:9,5!important;stroke-dashoffset:900;animation:dash 50s linear infinite;stroke-linecap:round;}#my-svg .edge-animation-fast{stroke-dasharray:9,5!important;stroke-dashoffset:900;animation:dash 20s linear infinite;stroke-linecap:round;}#my-svg .error-icon{fill:#552222;}#my-svg .error-text{fill:#552222;stroke:#552222;}#my-svg .edge-thickness-normal{stroke-width:1px;}#my-svg .edge-thickness-thick{stroke-width:3.5px;}#my-svg .edge-pattern-solid{stroke-dasharray:0;}#my-svg .edge-thickness-invisible{stroke-width:0;fill:none;}#my-svg .edge-pattern-dashed{stroke-dasharray:3;}#my-svg .edge-pattern-dotted{stroke-dasharray:2;}#my-svg .marker{fill:#333333;stroke:#333333;}#my-svg .marker.cross{stroke:#333333;}#my-svg svg{font-family:"trebuchet ms",verdana,arial,sans-serif;font-size:16px;}#my-svg p{margin:0;}#my-svg .label{font-family:"trebuchet ms",verdana,arial,sans-serif;color:#333;}#my-svg .cluster-label text{fill:#333;}#my-svg .cluster-label span{color:#333;}#my-svg .cluster-label span p{background-color:transparent;}#my-svg .label text,#my-svg span{fill:#333;color:#333;}#my-svg .node rect,#my-svg .node circle,#my-svg .node ellipse,#my-svg .node polygon,#my-svg .node path{fill:#ECECFF;stroke:#9370DB;stroke-width:1px;}#my-svg .rough-node .label text,#my-svg .node .label text,#my-svg .image-shape .label,#my-svg .icon-shape .label{text-anchor:middle;}#my-svg .node .katex path{fill:#000;stroke:#000;stroke-width:1px;}#my-svg .rough-node .label,#my-svg .node .label,#my-svg .image-shape .label,#my-svg .icon-shape .label{text-align:center;}#my-svg .node.clickable{cursor:pointer;}#my-svg .root .anchor path{fill:#333333!important;stroke-width:0;stroke:#333333;}#my-svg .arrowheadPath{fill:#333333;}#my-svg .edgePath .path{stroke:#333333;stroke-width:2.0px;}#my-svg .flowchart-link{stroke:#333333;fill:none;}#my-svg .edgeLabel{background-color:rgba(232,232,232, 0.8);text-align:center;}#my-svg .edgeLabel p{background-color:rgba(232,232,232, 0.8);}#my-svg .edgeLabel rect{opacity:0.5;background-color:rgba(232,232,232, 0.8);fill:rgba(232,232,232, 0.8);}#my-svg .labelBkg{background-color:rgba(232, 232, 232, 0.5);}#my-svg .cluster rect{fill:#ffffde;stroke:#aaaa33;stroke-width:1px;}#my-svg .cluster text{fill:#333;}#my-svg .cluster span{color:#333;}#my-svg div.mermaidTooltip{position:absolute;text-align:center;max-width:200px;padding:2px;font-family:"trebuchet ms",verdana,arial,sans-serif;font-size:12px;background:hsl(80, 100%, 96.2745098039%);border:1px solid #aaaa33;border-radius:2px;pointer-events:none;z-index:100;}#my-svg .flowchartTitleText{text-anchor:middle;font-size:18px;fill:#333;}#my-svg rect.text{fill:none;stroke-width:0;}#my-svg .icon-shape,#my-svg .image-shape{background-color:rgba(232,232,232, 0.8);text-align:center;}#my-svg .icon-shape p,#my-svg .image-shape p{background-color:rgba(232,232,232, 0.8);padding:2px;}#my-svg .icon-shape rect,#my-svg .image-shape rect{opacity:0.5;background-color:rgba(232,232,232, 0.8);fill:rgba(232,232,232, 0.8);}#my-svg .label-icon{display:inline-block;height:1em;overflow:visible;vertical-align:-0.125em;}#my-svg .node .label-icon path{fill:currentColor;stroke:revert;stroke-width:revert;}#my-svg :root{--mermaid-font-family:"trebuchet ms",verdana,arial,sans-serif;}</style><g><marker id="my-svg_flowchart-v2-pointEnd" class="marker flowchart-v2" viewBox="0 0 10 10" refX="5" refY="5" markerUnits="userSpaceOnUse" markerWidth="8" markerHeight="8" orient="auto"><path d="M 0 0 L 10 5 L 0 10 z" class="arrowMarkerPath" style="stroke-width: 1; stroke-dasharray: 1, 0;"/></marker><marker id="my-svg_flowchart-v2-pointStart" class="marker flowchart-v2" viewBox="0 0 10 10" refX="4.5" refY="5" markerUnits="userSpaceOnUse" markerWidth="8" markerHeight="8" orient="auto"><path d="M 0 5 L 10 10 L 10 0 z" class="arrowMarkerPath" style="stroke-width: 1; stroke-dasharray: 1, 0;"/></marker><marker id="my-svg_flowchart-v2-circleEnd" class="marker flowchart-v2" viewBox="0 0 10 10" refX="11" refY="5" markerUnits="userSpaceOnUse" markerWidth="11" markerHeight="11" orient="auto"><circle cx="5" cy="5" r="5" class="arrowMarkerPath" style="stroke-width: 1; stroke-dasharray: 1, 0;"/></marker><marker id="my-svg_flowchart-v2-circleStart" class="marker flowchart-v2" viewBox="0 0 10 10" refX="-1" refY="5" markerUnits="userSpaceOnUse" markerWidth="11" markerHeight="11" orient="auto"><circle cx="5" cy="5" r="5" class="arrowMarkerPath" style="stroke-width: 1; stroke-dasharray: 1, 0;"/></marker><marker id="my-svg_flowchart-v2-crossEnd" class="marker cross flowchart-v2" viewBox="0 0 11 11" refX="12" refY="5.2" markerUnits="userSpaceOnUse" markerWidth="11" markerHeight="11" orient="auto"><path d="M 1,1 l 9,9 M 10,1 l -9,9" class="arrowMarkerPath" style="stroke-width: 2; stroke-dasharray: 1, 0;"/></marker><marker id="my-svg_flowchart-v2-crossStart" class="marker cross flowchart-v2" viewBox="0 0 11 11" refX="-1" refY="5.2" markerUnits="userSpaceOnUse" markerWidth="11" markerHeight="11" orient="auto"><path d="M 1,1 l 9,9 M 10,1 l -9,9" class="arrowMarkerPath" style="stroke-width: 2; stroke-dasharray: 1, 0;"/></marker><g class="root"><g class="clusters"/><g class="edgePaths"><path d="M274.254,54.002L238.031,59.502C201.807,65.001,129.361,76.001,93.137,92.167C56.914,108.333,56.914,129.667,56.914,151C56.914,172.333,56.914,193.667,56.914,215C56.914,236.333,56.914,257.667,56.914,279C56.914,300.333,56.914,321.667,56.914,343C56.914,364.333,56.914,385.667,56.914,407C56.914,428.333,56.914,449.667,56.914,471C56.914,492.333,56.914,513.667,56.914,535C56.914,556.333,56.914,577.667,56.914,597C56.914,616.333,56.914,633.667,56.914,651C56.914,668.333,56.914,685.667,56.914,703C56.914,720.333,56.914,737.667,56.914,755C56.914,772.333,56.914,789.667,118.192,804.961C179.47,820.255,302.026,833.51,363.304,840.138L424.582,846.766" id="L_v0_v2_0" class="edge-thickness-normal edge-pattern-solid edge-thickness-normal edge-pattern-solid flowchart-link" style=";" data-edge="true" data-et="edge" data-id="L_v0_v2_0" data-points="W3sieCI6Mjc0LjI1MzkwNjI1LCJ5Ijo1NC4wMDIwNDE1Mzc4ODI1MDV9LHsieCI6NTYuOTE0MDYyNSwieSI6ODd9LHsieCI6NTYuOTE0MDYyNSwieSI6MTUxfSx7IngiOjU2LjkxNDA2MjUsInkiOjIxNX0seyJ4Ijo1Ni45MTQwNjI1LCJ5IjoyNzl9LHsieCI6NTYuOTE0MDYyNSwieSI6MzQzfSx7IngiOjU2LjkxNDA2MjUsInkiOjQwN30seyJ4Ijo1Ni45MTQwNjI1LCJ5Ijo0NzF9LHsieCI6NTYuOTE0MDYyNSwieSI6NTM1fSx7IngiOjU2LjkxNDA2MjUsInkiOjU5OX0seyJ4Ijo1Ni45MTQwNjI1LCJ5Ijo2NTF9LHsieCI6NTYuOTE0MDYyNSwieSI6NzAzfSx7IngiOjU2LjkxNDA2MjUsInkiOjc1NX0seyJ4Ijo1Ni45MTQwNjI1LCJ5Ijo4MDd9LHsieCI6NDI4LjU1ODU5Mzc1LCJ5Ijo4NDcuMTk1NzQxMDE2MDc4OH1d" marker-end="url(#my-svg_flowchart-v2-pointEnd)"/><path d="M358.91,782L358.91,786.167C358.91,790.333,358.91,798.667,372.596,806.814C386.282,814.961,413.654,822.922,427.34,826.902L441.026,830.883" id="L_v85_v2_0" class="edge-thickness-normal edge-pattern-solid edge-thickness-normal edge-pattern-solid flowchart-link" style=";" data-edge="true" data-et="edge" data-id="L_v85_v2_0" data-points="W3sieCI6MzU4LjkxMDE1NjI1LCJ5Ijo3ODJ9LHsieCI6MzU4LjkxMDE1NjI1LCJ5Ijo4MDd9LHsieCI6NDQ0Ljg2NjQzNjI5ODA3NjksInkiOjgzMn1d" marker-end="url(#my-svg_flowchart-v2-pointEnd)"/><path d="M564.758,295.747L500.462,303.622C436.167,311.498,307.576,327.249,243.28,345.791C178.984,364.333,178.984,385.667,178.984,407C178.984,428.333,178.984,449.667,178.984,471C178.984,492.333,178.984,513.667,178.984,535C178.984,556.333,178.984,577.667,178.984,597C178.984,616.333,178.984,633.667,178.984,651C178.984,668.333,178.984,685.667,178.984,703C178.984,720.333,178.984,737.667,178.984,755C178.984,772.333,178.984,789.667,219.92,804.267C260.856,818.868,342.728,830.737,383.664,836.671L424.6,842.605" id="L_v86_v2_0" class="edge-thickness-normal edge-pattern-solid edge-thickness-normal edge-pattern-solid flowchart-link" style=";" data-edge="true" data-et="edge" data-id="L_v86_v2_0" data-points="W3sieCI6NTY0Ljc1NzgxMjUsInkiOjI5NS43NDY2NjE4ODE5MDYxfSx7IngiOjE3OC45ODQzNzUsInkiOjM0M30seyJ4IjoxNzguOTg0Mzc1LCJ5Ijo0MDd9LHsieCI6MTc4Ljk4NDM3NSwieSI6NDcxfSx7IngiOjE3OC45ODQzNzUsInkiOjUzNX0seyJ4IjoxNzguOTg0Mzc1LCJ5Ijo1OTl9LHsieCI6MTc4Ljk4NDM3NSwieSI6NjUxfSx7IngiOjE3OC45ODQzNzUsInkiOjcwM30seyJ4IjoxNzguOTg0Mzc1LCJ5Ijo3NTV9LHsieCI6MTc4Ljk4NDM3NSwieSI6ODA3fSx7IngiOjQyOC41NTg1OTM3NSwieSI6ODQzLjE3ODc2MzE2Mjc2NjR9XQ==" marker-end="url(#my-svg_flowchart-v2-pointEnd)"/><path d="M470.656,427.713L425.378,434.928C380.099,442.142,289.542,456.571,244.263,474.452C198.984,492.333,198.984,513.667,198.984,535C198.984,556.333,198.984,577.667,198.984,597C198.984,616.333,198.984,633.667,198.984,651C198.984,668.333,198.984,685.667,198.984,703C198.984,720.333,198.984,737.667,198.984,755C198.984,772.333,198.984,789.667,236.588,804.106C274.191,818.546,349.398,830.092,387.001,835.865L424.605,841.638" id="L_v87_v2_0" class="edge-thickness-normal edge-pattern-solid edge-thickness-normal edge-pattern-solid flowchart-link" style=";" data-edge="true" data-et="edge" data-id="L_v87_v2_0" data-points="W3sieCI6NDcwLjY1NjI1LCJ5Ijo0MjcuNzEzNDI0MzU5MTIzOTZ9LHsieCI6MTk4Ljk4NDM3NSwieSI6NDcxfSx7IngiOjE5OC45ODQzNzUsInkiOjUzNX0seyJ4IjoxOTguOTg0Mzc1LCJ5Ijo1OTl9LHsieCI6MTk4Ljk4NDM3NSwieSI6NjUxfSx7IngiOjE5OC45ODQzNzUsInkiOjcwM30seyJ4IjoxOTguOTg0Mzc1LCJ5Ijo3NTV9LHsieCI6MTk4Ljk4NDM3NSwieSI6ODA3fSx7IngiOjQyOC41NTg1OTM3NSwieSI6ODQyLjI0NDU3MTA0NjM0OTR9XQ==" marker-end="url(#my-svg_flowchart-v2-pointEnd)"/><path d="M986.434,435.464L959.098,441.387C931.763,447.31,877.092,459.155,849.757,475.744C822.422,492.333,822.422,513.667,822.422,535C822.422,556.333,822.422,577.667,822.422,597C822.422,616.333,822.422,633.667,822.422,651C822.422,668.333,822.422,685.667,822.422,703C822.422,720.333,822.422,737.667,822.422,755C822.422,772.333,822.422,789.667,793.814,803.558C765.206,817.45,707.99,827.899,679.383,833.124L650.775,838.349" id="L_v89_v2_0" class="edge-thickness-normal edge-pattern-solid edge-thickness-normal edge-pattern-solid flowchart-link" style=";" data-edge="true" data-et="edge" data-id="L_v89_v2_0" data-points="W3sieCI6OTg2LjQzMzU5Mzc1LCJ5Ijo0MzUuNDY0MzgwNjQ1MDc1OTV9LHsieCI6ODIyLjQyMTg3NSwieSI6NDcxfSx7IngiOjgyMi40MjE4NzUsInkiOjUzNX0seyJ4Ijo4MjIuNDIxODc1LCJ5Ijo1OTl9LHsieCI6ODIyLjQyMTg3NSwieSI6NjUxfSx7IngiOjgyMi40MjE4NzUsInkiOjcwM30seyJ4Ijo4MjIuNDIxODc1LCJ5Ijo3NTV9LHsieCI6ODIyLjQyMTg3NSwieSI6ODA3fSx7IngiOjY0Ni44Mzk4NDM3NSwieSI6ODM5LjA2NzIyNTUwNzI3ODJ9XQ==" marker-end="url(#my-svg_flowchart-v2-pointEnd)"/><path d="M1520.516,446L1518.563,450.167C1516.609,454.333,1512.703,462.667,1510.75,477.5C1508.797,492.333,1508.797,513.667,1508.797,535C1508.797,556.333,1508.797,577.667,1508.797,597C1508.797,616.333,1508.797,633.667,1508.797,651C1508.797,668.333,1508.797,685.667,1508.797,703C1508.797,720.333,1508.797,737.667,1508.797,755C1508.797,772.333,1508.797,789.667,1365.803,805.99C1222.809,822.314,936.822,837.628,793.828,845.285L650.834,852.942" id="L_v91_v2_0" class="edge-thickness-normal edge-pattern-solid edge-thickness-normal edge-pattern-solid flowchart-link" style=";" data-edge="true" data-et="edge" data-id="L_v91_v2_0" data-points="W3sieCI6MTUyMC41MTU2MjUsInkiOjQ0Nn0seyJ4IjoxNTA4Ljc5Njg3NSwieSI6NDcxfSx7IngiOjE1MDguNzk2ODc1LCJ5Ijo1MzV9LHsieCI6MTUwOC43OTY4NzUsInkiOjU5OX0seyJ4IjoxNTA4Ljc5Njg3NSwieSI6NjUxfSx7IngiOjE1MDguNzk2ODc1LCJ5Ijo3MDN9LHsieCI6MTUwOC43OTY4NzUsInkiOjc1NX0seyJ4IjoxNTA4Ljc5Njg3NSwieSI6ODA3fSx7IngiOjY0Ni44Mzk4NDM3NSwieSI6ODUzLjE1NTc3NTcyMDkzNDN9XQ==" marker-end="url(#my-svg_flowchart-v2-pointEnd)"/><path d="M1703.797,562L1703.797,568.167C1703.797,574.333,1703.797,586.667,1703.797,601.5C1703.797,616.333,1703.797,633.667,1703.797,651C1703.797,668.333,1703.797,685.667,1703.797,703C1703.797,720.333,1703.797,737.667,1703.797,755C1703.797,772.333,1703.797,789.667,1528.303,806.159C1352.81,822.652,1001.823,838.303,826.329,846.129L650.836,853.955" id="L_v92_v2_0" class="edge-thickness-normal edge-pattern-solid edge-thickness-normal edge-pattern-solid flowchart-link" style=";" data-edge="true" data-et="edge" data-id="L_v92_v2_0" data-points="W3sieCI6MTcwMy43OTY4NzUsInkiOjU2Mn0seyJ4IjoxNzAzLjc5Njg3NSwieSI6NTk5fSx7IngiOjE3MDMuNzk2ODc1LCJ5Ijo2NTF9LHsieCI6MTcwMy43OTY4NzUsInkiOjcwM30seyJ4IjoxNzAzLjc5Njg3NSwieSI6NzU1fSx7IngiOjE3MDMuNzk2ODc1LCJ5Ijo4MDd9LHsieCI6NjQ2LjgzOTg0Mzc1LCJ5Ijo4NTQuMTMzMDcyNzE1MTUyNH1d" marker-end="url(#my-svg_flowchart-v2-pointEnd)"/><path d="M428.559,873.986L383.63,880.155C338.701,886.324,248.842,898.662,198.679,908.608C148.516,918.553,138.047,926.106,132.813,929.883L127.579,933.66" id="L_v2_v47_0" class="edge-thickness-normal edge-pattern-solid edge-thickness-normal edge-pattern-solid flowchart-link" style=";" data-edge="true" data-et="edge" data-id="L_v2_v47_0" data-points="W3sieCI6NDI4LjU1ODU5Mzc1LCJ5Ijo4NzMuOTg1NzE0NDMzMDY0MX0seyJ4IjoxNTguOTg0Mzc1LCJ5Ijo5MTF9LHsieCI6MTI0LjMzNTE4NjI5ODA3NjkyLCJ5Ijo5MzZ9XQ==" marker-end="url(#my-svg_flowchart-v2-pointEnd)"/><path d="M571.477,164.321L489.049,172.768C406.622,181.214,241.768,198.107,159.341,217.22C76.914,236.333,76.914,257.667,76.914,279C76.914,300.333,76.914,321.667,76.914,343C76.914,364.333,76.914,385.667,76.914,407C76.914,428.333,76.914,449.667,76.914,471C76.914,492.333,76.914,513.667,76.914,535C76.914,556.333,76.914,577.667,76.914,597C76.914,616.333,76.914,633.667,76.914,651C76.914,668.333,76.914,685.667,76.914,703C76.914,720.333,76.914,737.667,76.914,755C76.914,772.333,76.914,789.667,76.914,807C76.914,824.333,76.914,841.667,76.914,859C76.914,876.333,76.914,893.667,77.589,905.845C78.265,918.024,79.616,925.048,80.291,928.56L80.966,932.072" id="L_v75_v47_0" class="edge-thickness-normal edge-pattern-solid edge-thickness-normal edge-pattern-solid flowchart-link" style=";" data-edge="true" data-et="edge" data-id="L_v75_v47_0" data-points="W3sieCI6NTcxLjQ3NjU2MjUsInkiOjE2NC4zMjEzMjQ5Mjc0NDkyfSx7IngiOjc2LjkxNDA2MjUsInkiOjIxNX0seyJ4Ijo3Ni45MTQwNjI1LCJ5IjoyNzl9LHsieCI6NzYuOTE0MDYyNSwieSI6MzQzfSx7IngiOjc2LjkxNDA2MjUsInkiOjQwN30seyJ4Ijo3Ni45MTQwNjI1LCJ5Ijo0NzF9LHsieCI6NzYuOTE0MDYyNSwieSI6NTM1fSx7IngiOjc2LjkxNDA2MjUsInkiOjU5OX0seyJ4Ijo3Ni45MTQwNjI1LCJ5Ijo2NTF9LHsieCI6NzYuOTE0MDYyNSwieSI6NzAzfSx7IngiOjc2LjkxNDA2MjUsInkiOjc1NX0seyJ4Ijo3Ni45MTQwNjI1LCJ5Ijo4MDd9LHsieCI6NzYuOTE0MDYyNSwieSI6ODU5fSx7IngiOjc2LjkxNDA2MjUsInkiOjkxMX0seyJ4Ijo4MS43MjE3NTQ4MDc2OTIzLCJ5Ijo5MzZ9XQ==" marker-end="url(#my-svg_flowchart-v2-pointEnd)"/><path d="M559.199,886L562.516,890.167C565.834,894.333,572.47,902.667,575.788,910.333C579.105,918,579.105,925,579.105,928.5L579.105,932" id="L_v2_v74_0" class="edge-thickness-normal edge-pattern-solid edge-thickness-normal edge-pattern-solid flowchart-link" style=";" data-edge="true" data-et="edge" data-id="L_v2_v74_0" data-points="W3sieCI6NTU5LjE5ODYxNzc4ODQ2MTUsInkiOjg4Nn0seyJ4Ijo1NzkuMTA1NDY4NzUsInkiOjkxMX0seyJ4Ijo1NzkuMTA1NDY4NzUsInkiOjkzNn1d" marker-end="url(#my-svg_flowchart-v2-pointEnd)"/><path d="M524.566,56.545L554.051,61.621C583.536,66.697,642.507,76.848,671.992,85.424C701.477,94,701.477,101,701.477,104.5L701.477,108" id="L_v0_v75_0" class="edge-thickness-normal edge-pattern-solid edge-thickness-normal edge-pattern-solid flowchart-link" style=";" data-edge="true" data-et="edge" data-id="L_v0_v75_0" data-points="W3sieCI6NTI0LjU2NjQwNjI1LCJ5Ijo1Ni41NDUzNDUyMTMzMDkzN30seyJ4Ijo3MDEuNDc2NTYyNSwieSI6ODd9LHsieCI6NzAxLjQ3NjU2MjUsInkiOjExMn1d" marker-end="url(#my-svg_flowchart-v2-pointEnd)"/><path d="M571.477,165.791L499.395,173.993C427.313,182.194,283.148,198.597,211.066,217.465C138.984,236.333,138.984,257.667,138.984,279C138.984,300.333,138.984,321.667,138.984,343C138.984,364.333,138.984,385.667,138.984,407C138.984,428.333,138.984,449.667,208.393,469.533C277.802,489.399,416.619,507.797,486.028,516.997L555.437,526.196" id="L_v75_v76_0" class="edge-thickness-normal edge-pattern-solid edge-thickness-normal edge-pattern-solid flowchart-link" style=";" data-edge="true" data-et="edge" data-id="L_v75_v76_0" data-points="W3sieCI6NTcxLjQ3NjU2MjUsInkiOjE2NS43OTEzMTY1NDYwNjMxNH0seyJ4IjoxMzguOTg0Mzc1LCJ5IjoyMTV9LHsieCI6MTM4Ljk4NDM3NSwieSI6Mjc5fSx7IngiOjEzOC45ODQzNzUsInkiOjM0M30seyJ4IjoxMzguOTg0Mzc1LCJ5Ijo0MDd9LHsieCI6MTM4Ljk4NDM3NSwieSI6NDcxfSx7IngiOjU1OS40MDIzNDM3NSwieSI6NTI2LjcyMTUyNjk3NDQ0NTN9XQ==" marker-end="url(#my-svg_flowchart-v2-pointEnd)"/><path d="M613.579,446L614.96,450.167C616.341,454.333,619.102,462.667,620.483,472.333C621.863,482,621.863,493,621.863,498.5L621.863,504" id="L_v87_v76_0" class="edge-thickness-normal edge-pattern-solid edge-thickness-normal edge-pattern-solid flowchart-link" style=";" data-edge="true" data-et="edge" data-id="L_v87_v76_0" data-points="W3sieCI6NjEzLjU3OTI4NDY2Nzk2ODgsInkiOjQ0Nn0seyJ4Ijo2MjEuODYzMjgxMjUsInkiOjQ3MX0seyJ4Ijo2MjEuODYzMjgxMjUsInkiOjUwOH1d" marker-end="url(#my-svg_flowchart-v2-pointEnd)"/><path d="M986.434,445.612L972.036,449.843C957.639,454.074,928.845,462.537,879.143,474.891C829.441,487.244,758.832,503.489,723.527,511.611L688.222,519.733" id="L_v89_v76_0" class="edge-thickness-normal edge-pattern-solid edge-thickness-normal edge-pattern-solid flowchart-link" style=";" data-edge="true" data-et="edge" data-id="L_v89_v76_0" data-points="W3sieCI6OTg2LjQzMzU5Mzc1LCJ5Ijo0NDUuNjExNzAzMDgxODM1NDZ9LHsieCI6OTAwLjA1MDc4MTI1LCJ5Ijo0NzF9LHsieCI6Njg0LjMyNDIxODc1LCJ5Ijo1MjAuNjMwMTk1NDYxNjk0fV0=" marker-end="url(#my-svg_flowchart-v2-pointEnd)"/><path d="M1532.703,446L1532.052,450.167C1531.401,454.333,1530.099,462.667,1389.367,476.718C1248.636,490.77,968.475,510.54,828.395,520.426L688.314,530.311" id="L_v91_v76_0" class="edge-thickness-normal edge-pattern-solid edge-thickness-normal edge-pattern-solid flowchart-link" style=";" data-edge="true" data-et="edge" data-id="L_v91_v76_0" data-points="W3sieCI6MTUzMi43MDMxMjUsInkiOjQ0Nn0seyJ4IjoxNTI4Ljc5Njg3NSwieSI6NDcxfSx7IngiOjY4NC4zMjQyMTg3NSwieSI6NTMwLjU5MjI5MDI5ODI2NjR9XQ==" marker-end="url(#my-svg_flowchart-v2-pointEnd)"/><path d="M621.863,562L621.863,568.167C621.863,574.333,621.863,586.667,621.863,596.333C621.863,606,621.863,613,621.863,616.5L621.863,620" id="L_v76_v77_0" class="edge-thickness-normal edge-pattern-solid edge-thickness-normal edge-pattern-solid flowchart-link" style=";" data-edge="true" data-et="edge" data-id="L_v76_v77_0" data-points="W3sieCI6NjIxLjg2MzI4MTI1LCJ5Ijo1NjJ9LHsieCI6NjIxLjg2MzI4MTI1LCJ5Ijo1OTl9LHsieCI6NjIxLjg2MzI4MTI1LCJ5Ijo2MjR9XQ==" marker-end="url(#my-svg_flowchart-v2-pointEnd)"/><path d="M571.477,166.337L502.728,174.447C433.979,182.558,296.482,198.779,227.733,217.556C158.984,236.333,158.984,257.667,158.984,279C158.984,300.333,158.984,321.667,158.984,343C158.984,364.333,158.984,385.667,158.984,407C158.984,428.333,158.984,449.667,158.984,471C158.984,492.333,158.984,513.667,158.984,535C158.984,556.333,158.984,577.667,174.359,592.332C189.733,606.998,220.482,614.995,235.857,618.994L251.231,622.993" id="L_v75_v84_0" class="edge-thickness-normal edge-pattern-solid edge-thickness-normal edge-pattern-solid flowchart-link" style=";" data-edge="true" data-et="edge" data-id="L_v75_v84_0" data-points="W3sieCI6NTcxLjQ3NjU2MjUsInkiOjE2Ni4zMzY2MjYzOTE1MDkxfSx7IngiOjE1OC45ODQzNzUsInkiOjIxNX0seyJ4IjoxNTguOTg0Mzc1LCJ5IjoyNzl9LHsieCI6MTU4Ljk4NDM3NSwieSI6MzQzfSx7IngiOjE1OC45ODQzNzUsInkiOjQwN30seyJ4IjoxNTguOTg0Mzc1LCJ5Ijo0NzF9LHsieCI6MTU4Ljk4NDM3NSwieSI6NTM1fSx7IngiOjE1OC45ODQzNzUsInkiOjU5OX0seyJ4IjoyNTUuMTAyNTM5MDYyNSwieSI6NjI0fV0=" marker-end="url(#my-svg_flowchart-v2-pointEnd)"/><path d="M449.387,733.569L470.896,728.474C492.406,723.38,535.426,713.19,539.993,704.082C544.561,694.974,510.676,686.948,493.734,682.935L476.792,678.922" id="L_v85_v84_0" class="edge-thickness-normal edge-pattern-solid edge-thickness-normal edge-pattern-solid flowchart-link" style=";" data-edge="true" data-et="edge" data-id="L_v85_v84_0" data-points="W3sieCI6NDQ5LjM4NjcxODc1LCJ5Ijo3MzMuNTY5MzQ5Mjk5ODM0NX0seyJ4Ijo1NzguNDQ1MzEyNSwieSI6NzAzfSx7IngiOjQ3Mi44OTk1NjQzMDI4ODQ2NCwieSI6Njc4fV0=" marker-end="url(#my-svg_flowchart-v2-pointEnd)"/><path d="M1043.539,562L1043.539,568.167C1043.539,574.333,1043.539,586.667,950.439,599.905C857.339,613.143,671.138,627.285,578.038,634.356L484.938,641.428" id="L_v88_v84_0" class="edge-thickness-normal edge-pattern-solid edge-thickness-normal edge-pattern-solid flowchart-link" style=";" data-edge="true" data-et="edge" data-id="L_v88_v84_0" data-points="W3sieCI6MTA0My41MzkwNjI1LCJ5Ijo1NjJ9LHsieCI6MTA0My41MzkwNjI1LCJ5Ijo1OTl9LHsieCI6NDgwLjk0OTIxODc1LCJ5Ijo2NDEuNzMwNjk5MjI2ODg1fV0=" marker-end="url(#my-svg_flowchart-v2-pointEnd)"/><path d="M321.834,678L316.112,682.167C310.391,686.333,298.947,694.667,298.408,702.608C297.869,710.548,308.235,718.097,313.418,721.871L318.6,725.645" id="L_v84_v85_0" class="edge-thickness-normal edge-pattern-solid edge-thickness-normal edge-pattern-solid flowchart-link" style=";" data-edge="true" data-et="edge" data-id="L_v84_v85_0" data-points="W3sieCI6MzIxLjgzMzgzNDEzNDYxNTM2LCJ5Ijo2Nzh9LHsieCI6Mjg3LjUwMzkwNjI1LCJ5Ijo3MDN9LHsieCI6MzIxLjgzMzgzNDEzNDYxNTM2LCJ5Ijo3Mjh9XQ==" marker-end="url(#my-svg_flowchart-v2-pointEnd)"/><path d="M701.477,190L701.477,194.167C701.477,198.333,701.477,206.667,701.477,214.333C701.477,222,701.477,229,701.477,232.5L701.477,236" id="L_v75_v86_0" class="edge-thickness-normal edge-pattern-solid edge-thickness-normal edge-pattern-solid flowchart-link" style=";" data-edge="true" data-et="edge" data-id="L_v75_v86_0" data-points="W3sieCI6NzAxLjQ3NjU2MjUsInkiOjE5MH0seyJ4Ijo3MDEuNDc2NTYyNSwieSI6MjE1fSx7IngiOjcwMS40NzY1NjI1LCJ5IjoyNDB9XQ==" marker-end="url(#my-svg_flowchart-v2-pointEnd)"/><path d="M640.039,318L633.475,322.167C626.912,326.333,613.784,334.667,607.22,342.333C600.656,350,600.656,357,600.656,360.5L600.656,364" id="L_v86_v87_0" class="edge-thickness-normal edge-pattern-solid edge-thickness-normal edge-pattern-solid flowchart-link" style=";" data-edge="true" data-et="edge" data-id="L_v86_v87_0" data-points="W3sieCI6NjQwLjAzOTE4NDU3MDMxMjUsInkiOjMxOH0seyJ4Ijo2MDAuNjU2MjUsInkiOjM0M30seyJ4Ijo2MDAuNjU2MjUsInkiOjM2OH1d" marker-end="url(#my-svg_flowchart-v2-pointEnd)"/><path d="M831.477,163.375L921.863,171.979C1012.25,180.583,1193.023,197.792,1283.41,217.063C1373.797,236.333,1373.797,257.667,1373.797,279C1373.797,300.333,1373.797,321.667,1373.797,343C1373.797,364.333,1373.797,385.667,1373.797,407C1373.797,428.333,1373.797,449.667,1339.451,466.989C1305.106,484.311,1236.415,497.623,1202.069,504.279L1167.724,510.934" id="L_v75_v88_0" class="edge-thickness-normal edge-pattern-solid edge-thickness-normal edge-pattern-solid flowchart-link" style=";" data-edge="true" data-et="edge" data-id="L_v75_v88_0" data-points="W3sieCI6ODMxLjQ3NjU2MjUsInkiOjE2My4zNzUwNTM3NDM0NDkxMn0seyJ4IjoxMzczLjc5Njg3NSwieSI6MjE1fSx7IngiOjEzNzMuNzk2ODc1LCJ5IjoyNzl9LHsieCI6MTM3My43OTY4NzUsInkiOjM0M30seyJ4IjoxMzczLjc5Njg3NSwieSI6NDA3fSx7IngiOjEzNzMuNzk2ODc1LCJ5Ijo0NzF9LHsieCI6MTE2My43OTY4NzUsInkiOjUxMS42OTU0NzkzODQwMDR9XQ==" marker-end="url(#my-svg_flowchart-v2-pointEnd)"/><path d="M759.603,318L765.813,322.167C772.023,326.333,784.443,334.667,790.653,349.5C796.863,364.333,796.863,385.667,796.863,407C796.863,428.333,796.863,449.667,819.986,466.333C843.109,482.998,889.355,494.997,912.478,500.996L935.601,506.995" id="L_v86_v88_0" class="edge-thickness-normal edge-pattern-solid edge-thickness-normal edge-pattern-solid flowchart-link" style=";" data-edge="true" data-et="edge" data-id="L_v86_v88_0" data-points="W3sieCI6NzU5LjYwMjg0NDIzODI4MTIsInkiOjMxOH0seyJ4Ijo3OTYuODYzMjgxMjUsInkiOjM0M30seyJ4Ijo3OTYuODYzMjgxMjUsInkiOjQwN30seyJ4Ijo3OTYuODYzMjgxMjUsInkiOjQ3MX0seyJ4Ijo5MzkuNDcyNzE3Mjg1MTU2MiwieSI6NTA4fV0=" marker-end="url(#my-svg_flowchart-v2-pointEnd)"/><path d="M663.853,446L670.604,450.167C677.356,454.333,690.86,462.667,733.443,473.594C776.026,484.522,847.688,498.044,883.519,504.805L919.351,511.567" id="L_v87_v88_0" class="edge-thickness-normal edge-pattern-solid edge-thickness-normal edge-pattern-solid flowchart-link" style=";" data-edge="true" data-et="edge" data-id="L_v87_v88_0" data-points="W3sieCI6NjYzLjg1MjcyMjE2Nzk2ODgsInkiOjQ0Nn0seyJ4Ijo3MDQuMzYzMjgxMjUsInkiOjQ3MX0seyJ4Ijo5MjMuMjgxMjUsInkiOjUxMi4zMDgyMjY1MTQxODN9XQ==" marker-end="url(#my-svg_flowchart-v2-pointEnd)"/><path d="M1032.418,446L1023.295,450.167C1014.172,454.333,995.926,462.667,992.67,472.535C989.415,482.404,1001.151,493.808,1007.018,499.51L1012.886,505.212" id="L_v89_v88_0" class="edge-thickness-normal edge-pattern-solid edge-thickness-normal edge-pattern-solid flowchart-link" style=";" data-edge="true" data-et="edge" data-id="L_v89_v88_0" data-points="W3sieCI6MTAzMi40MTc1NDE1MDM5MDYyLCJ5Ijo0NDZ9LHsieCI6OTc3LjY3OTY4NzUsInkiOjQ3MX0seyJ4IjoxMDE1Ljc1NDYzODY3MTg3NSwieSI6NTA4fV0=" marker-end="url(#my-svg_flowchart-v2-pointEnd)"/><path d="M838.195,300.017L884.798,307.181C931.4,314.345,1024.604,328.672,1071.206,339.336C1117.809,350,1117.809,357,1117.809,360.5L1117.809,364" id="L_v86_v89_0" class="edge-thickness-normal edge-pattern-solid edge-thickness-normal edge-pattern-solid flowchart-link" style=";" data-edge="true" data-et="edge" data-id="L_v86_v89_0" data-points="W3sieCI6ODM4LjE5NTMxMjUsInkiOjMwMC4wMTY4NzkxODEwOTIzfSx7IngiOjExMTcuODA4NTkzNzUsInkiOjM0M30seyJ4IjoxMTE3LjgwODU5Mzc1LCJ5IjozNjh9XQ==" marker-end="url(#my-svg_flowchart-v2-pointEnd)"/><path d="M1215.387,446L1225.812,450.167C1236.237,454.333,1257.087,462.667,1271.322,470.535C1285.557,478.404,1293.176,485.808,1296.986,489.51L1300.795,493.212" id="L_v89_v90_0" class="edge-thickness-normal edge-pattern-solid edge-thickness-normal edge-pattern-solid flowchart-link" style=";" data-edge="true" data-et="edge" data-id="L_v89_v90_0" data-points="W3sieCI6MTIxNS4zODcxNDU5OTYwOTM4LCJ5Ijo0NDZ9LHsieCI6MTI3Ny45Mzc1LCJ5Ijo0NzF9LHsieCI6MTMwMy42NjM4MTgzNTkzNzUsInkiOjQ5Nn1d" marker-end="url(#my-svg_flowchart-v2-pointEnd)"/><path d="M1576.883,446L1580.952,450.167C1585.021,454.333,1593.159,462.667,1576.625,471.954C1560.091,481.241,1518.885,491.483,1498.282,496.604L1477.679,501.724" id="L_v91_v90_0" class="edge-thickness-normal edge-pattern-solid edge-thickness-normal edge-pattern-solid flowchart-link" style=";" data-edge="true" data-et="edge" data-id="L_v91_v90_0" data-points="W3sieCI6MTU3Ni44ODI4MTI1LCJ5Ijo0NDZ9LHsieCI6MTYwMS4yOTY4NzUsInkiOjQ3MX0seyJ4IjoxNDczLjc5Njg3NSwieSI6NTAyLjY4OTMyMDM4ODM0OTUzfV0=" marker-end="url(#my-svg_flowchart-v2-pointEnd)"/><path d="M831.477,160.936L949.363,169.947C1067.25,178.958,1303.023,196.979,1420.91,216.656C1538.797,236.333,1538.797,257.667,1538.797,279C1538.797,300.333,1538.797,321.667,1538.797,335.833C1538.797,350,1538.797,357,1538.797,360.5L1538.797,364" id="L_v75_v91_0" class="edge-thickness-normal edge-pattern-solid edge-thickness-normal edge-pattern-solid flowchart-link" style=";" data-edge="true" data-et="edge" data-id="L_v75_v91_0" data-points="W3sieCI6ODMxLjQ3NjU2MjUsInkiOjE2MC45MzY0NjAyNDgwMDA5N30seyJ4IjoxNTM4Ljc5Njg3NSwieSI6MjE1fSx7IngiOjE1MzguNzk2ODc1LCJ5IjoyNzl9LHsieCI6MTUzOC43OTY4NzUsInkiOjM0M30seyJ4IjoxNTM4Ljc5Njg3NSwieSI6MzY4fV0=" marker-end="url(#my-svg_flowchart-v2-pointEnd)"/><path d="M831.477,159.301L976.863,168.584C1122.25,177.867,1413.023,196.434,1558.41,216.383C1703.797,236.333,1703.797,257.667,1703.797,279C1703.797,300.333,1703.797,321.667,1703.797,343C1703.797,364.333,1703.797,385.667,1703.797,407C1703.797,428.333,1703.797,449.667,1703.797,465.833C1703.797,482,1703.797,493,1703.797,498.5L1703.797,504" id="L_v75_v92_0" class="edge-thickness-normal edge-pattern-solid edge-thickness-normal edge-pattern-solid flowchart-link" style=";" data-edge="true" data-et="edge" data-id="L_v75_v92_0" data-points="W3sieCI6ODMxLjQ3NjU2MjUsInkiOjE1OS4zMDA3Mzk2ODk5MzgxOH0seyJ4IjoxNzAzLjc5Njg3NSwieSI6MjE1fSx7IngiOjE3MDMuNzk2ODc1LCJ5IjoyNzl9LHsieCI6MTcwMy43OTY4NzUsInkiOjM0M30seyJ4IjoxNzAzLjc5Njg3NSwieSI6NDA3fSx7IngiOjE3MDMuNzk2ODc1LCJ5Ijo0NzF9LHsieCI6MTcwMy43OTY4NzUsInkiOjUwOH1d" marker-end="url(#my-svg_flowchart-v2-pointEnd)"/><path d="M1589.07,446L1594.441,450.167C1599.813,454.333,1610.555,462.667,1623.348,472.591C1636.142,482.516,1650.987,494.032,1658.409,499.79L1665.832,505.548" id="L_v91_v92_0" class="edge-thickness-normal edge-pattern-solid edge-thickness-normal edge-pattern-solid flowchart-link" style=";" data-edge="true" data-et="edge" data-id="L_v91_v92_0" data-points="W3sieCI6MTU4OS4wNzAzMTI1LCJ5Ijo0NDZ9LHsieCI6MTYyMS4yOTY4NzUsInkiOjQ3MX0seyJ4IjoxNjY4Ljk5MjE4NzUsInkiOjUwOH1d" marker-end="url(#my-svg_flowchart-v2-pointEnd)"/></g><g class="edgeLabels"><g class="edgeLabel"><g class="label" data-id="L_v0_v2_0" transform="translate(0, 0)"><foreignObject width="0" height="0"><div xmlns="http://www.w3.org/1999/xhtml" class="labelBkg" style="display: table-cell; white-space: nowrap; line-height: 1.5; max-width: 200px; text-align: center;"><span class="edgeLabel"></span></div></foreignObject></g></g><g class="edgeLabel"><g class="label" data-id="L_v85_v2_0" transform="translate(0, 0)"><foreignObject width="0" height="0"><div xmlns="http://www.w3.org/1999/xhtml" class="labelBkg" style="display: table-cell; white-space: nowrap; line-height: 1.5; max-width: 200px; text-align: center;"><span class="edgeLabel"></span></div></foreignObject></g></g><g class="edgeLabel"><g class="label" data-id="L_v86_v2_0" transform="translate(0, 0)"><foreignObject width="0" height="0"><div xmlns="http://www.w3.org/1999/xhtml" class="labelBkg" style="display: table-cell; white-space: nowrap; line-height: 1.5; max-width: 200px; text-align: center;"><span class="edgeLabel"></span></div></foreignObject></g></g><g class="edgeLabel"><g class="label" data-id="L_v87_v2_0" transform="translate(0, 0)"><foreignObject width="0" height="0"><div xmlns="http://www.w3.org/1999/xhtml" class="labelBkg" style="display: table-cell; white-space: nowrap; line-height: 1.5; max-width: 200px; text-align: center;"><span class="edgeLabel"></span></div></foreignObject></g></g><g class="edgeLabel"><g class="label" data-id="L_v89_v2_0" transform="translate(0, 0)"><foreignObject width="0" height="0"><div xmlns="http://www.w3.org/1999/xhtml" class="labelBkg" style="display: table-cell; white-space: nowrap; line-height: 1.5; max-width: 200px; text-align: center;"><span class="edgeLabel"></span></div></foreignObject></g></g><g class="edgeLabel"><g class="label" data-id="L_v91_v2_0" transform="translate(0, 0)"><foreignObject width="0" height="0"><div xmlns="http://www.w3.org/1999/xhtml" class="labelBkg" style="display: table-cell; white-space: nowrap; line-height: 1.5; max-width: 200px; text-align: center;"><span class="edgeLabel"></span></div></foreignObject></g></g><g class="edgeLabel"><g class="label" data-id="L_v92_v2_0" transform="translate(0, 0)"><foreignObject width="0" height="0"><div xmlns="http://www.w3.org/1999/xhtml" class="labelBkg" style="display: table-cell; white-space: nowrap; line-height: 1.5; max-width: 200px; text-align: center;"><span class="edgeLabel"></span></div></foreignObject></g></g><g class="edgeLabel"><g class="label" data-id="L_v2_v47_0" transform="translate(0, 0)"><foreignObject width="0" height="0"><div xmlns="http://www.w3.org/1999/xhtml" class="labelBkg" style="display: table-cell; white-space: nowrap; line-height: 1.5; max-width: 200px; text-align: center;"><span class="edgeLabel"></span></div></foreignObject></g></g><g class="edgeLabel"><g class="label" data-id="L_v75_v47_0" transform="translate(0, 0)"><foreignObject width="0" height="0"><div xmlns="http://www.w3.org/1999/xhtml" class="labelBkg" style="display: table-cell; white-space: nowrap; line-height: 1.5; max-width: 200px; text-align: center;"><span class="edgeLabel"></span></div></foreignObject></g></g><g class="edgeLabel"><g class="label" data-id="L_v2_v74_0" transform="translate(0, 0)"><foreignObject width="0" height="0"><div xmlns="http://www.w3.org/1999/xhtml" class="labelBkg" style="display: table-cell; white-space: nowrap; line-height: 1.5; max-width: 200px; text-align: center;"><span class="edgeLabel"></span></div></foreignObject></g></g><g class="edgeLabel"><g class="label" data-id="L_v0_v75_0" transform="translate(0, 0)"><foreignObject width="0" height="0"><div xmlns="http://www.w3.org/1999/xhtml" class="labelBkg" style="display: table-cell; white-space: nowrap; line-height: 1.5; max-width: 200px; text-align: center;"><span class="edgeLabel"></span></div></foreignObject></g></g><g class="edgeLabel"><g class="label" data-id="L_v75_v76_0" transform="translate(0, 0)"><foreignObject width="0" height="0"><div xmlns="http://www.w3.org/1999/xhtml" class="labelBkg" style="display: table-cell; white-space: nowrap; line-height: 1.5; max-width: 200px; text-align: center;"><span class="edgeLabel"></span></div></foreignObject></g></g><g class="edgeLabel"><g class="label" data-id="L_v87_v76_0" transform="translate(0, 0)"><foreignObject width="0" height="0"><div xmlns="http://www.w3.org/1999/xhtml" class="labelBkg" style="display: table-cell; white-space: nowrap; line-height: 1.5; max-width: 200px; text-align: center;"><span class="edgeLabel"></span></div></foreignObject></g></g><g class="edgeLabel"><g class="label" data-id="L_v89_v76_0" transform="translate(0, 0)"><foreignObject width="0" height="0"><div xmlns="http://www.w3.org/1999/xhtml" class="labelBkg" style="display: table-cell; white-space: nowrap; line-height: 1.5; max-width: 200px; text-align: center;"><span class="edgeLabel"></span></div></foreignObject></g></g><g class="edgeLabel"><g class="label" data-id="L_v91_v76_0" transform="translate(0, 0)"><foreignObject width="0" height="0"><div xmlns="http://www.w3.org/1999/xhtml" class="labelBkg" style="display: table-cell; white-space: nowrap; line-height: 1.5; max-width: 200px; text-align: center;"><span class="edgeLabel"></span></div></foreignObject></g></g><g class="edgeLabel"><g class="label" data-id="L_v76_v77_0" transform="translate(0, 0)"><foreignObject width="0" height="0"><div xmlns="http://www.w3.org/1999/xhtml" class="labelBkg" style="display: table-cell; white-space: nowrap; line-height: 1.5; max-width: 200px; text-align: center;"><span class="edgeLabel"></span></div></foreignObject></g></g><g class="edgeLabel"><g class="label" data-id="L_v75_v84_0" transform="translate(0, 0)"><foreignObject width="0" height="0"><div xmlns="http://www.w3.org/1999/xhtml" class="labelBkg" style="display: table-cell; white-space: nowrap; line-height: 1.5; max-width: 200px; text-align: center;"><span class="edgeLabel"></span></div></foreignObject></g></g><g class="edgeLabel"><g class="label" data-id="L_v85_v84_0" transform="translate(0, 0)"><foreignObject width="0" height="0"><div xmlns="http://www.w3.org/1999/xhtml" class="labelBkg" style="display: table-cell; white-space: nowrap; line-height: 1.5; max-width: 200px; text-align: center;"><span class="edgeLabel"></span></div></foreignObject></g></g><g class="edgeLabel"><g class="label" data-id="L_v88_v84_0" transform="translate(0, 0)"><foreignObject width="0" height="0"><div xmlns="http://www.w3.org/1999/xhtml" class="labelBkg" style="display: table-cell; white-space: nowrap; line-height: 1.5; max-width: 200px; text-align: center;"><span class="edgeLabel"></span></div></foreignObject></g></g><g class="edgeLabel"><g class="label" data-id="L_v84_v85_0" transform="translate(0, 0)"><foreignObject width="0" height="0"><div xmlns="http://www.w3.org/1999/xhtml" class="labelBkg" style="display: table-cell; white-space: nowrap; line-height: 1.5; max-width: 200px; text-align: center;"><span class="edgeLabel"></span></div></foreignObject></g></g><g class="edgeLabel"><g class="label" data-id="L_v75_v86_0" transform="translate(0, 0)"><foreignObject width="0" height="0"><div xmlns="http://www.w3.org/1999/xhtml" class="labelBkg" style="display: table-cell; white-space: nowrap; line-height: 1.5; max-width: 200px; text-align: center;"><span class="edgeLabel"></span></div></foreignObject></g></g><g class="edgeLabel"><g class="label" data-id="L_v86_v87_0" transform="translate(0, 0)"><foreignObject width="0" height="0"><div xmlns="http://www.w3.org/1999/xhtml" class="labelBkg" style="display: table-cell; white-space: nowrap; line-height: 1.5; max-width: 200px; text-align: center;"><span class="edgeLabel"></span></div></foreignObject></g></g><g class="edgeLabel"><g class="label" data-id="L_v75_v88_0" transform="translate(0, 0)"><foreignObject width="0" height="0"><div xmlns="http://www.w3.org/1999/xhtml" class="labelBkg" style="display: table-cell; white-space: nowrap; line-height: 1.5; max-width: 200px; text-align: center;"><span class="edgeLabel"></span></div></foreignObject></g></g><g class="edgeLabel"><g class="label" data-id="L_v86_v88_0" transform="translate(0, 0)"><foreignObject width="0" height="0"><div xmlns="http://www.w3.org/1999/xhtml" class="labelBkg" style="display: table-cell; white-space: nowrap; line-height: 1.5; max-width: 200px; text-align: center;"><span class="edgeLabel"></span></div></foreignObject></g></g><g class="edgeLabel"><g class="label" data-id="L_v87_v88_0" transform="translate(0, 0)"><foreignObject width="0" height="0"><div xmlns="http://www.w3.org/1999/xhtml" class="labelBkg" style="display: table-cell; white-space: nowrap; line-height: 1.5; max-width: 200px; text-align: center;"><span class="edgeLabel"></span></div></foreignObject></g></g><g class="edgeLabel"><g class="label" data-id="L_v89_v88_0" transform="translate(0, 0)"><foreignObject width="0" height="0"><div xmlns="http://www.w3.org/1999/xhtml" class="labelBkg" style="display: table-cell; white-space: nowrap; line-height: 1.5; max-width: 200px; text-align: center;"><span class="edgeLabel"></span></div></foreignObject></g></g><g class="edgeLabel"><g class="label" data-id="L_v86_v89_0" transform="translate(0, 0)"><foreignObject width="0" height="0"><div xmlns="http://www.w3.org/1999/xhtml" class="labelBkg" style="display: table-cell; white-space: nowrap; line-height: 1.5; max-width: 200px; text-align: center;"><span class="edgeLabel"></span></div></foreignObject></g></g><g class="edgeLabel"><g class="label" data-id="L_v89_v90_0" transform="translate(0, 0)"><foreignObject width="0" height="0"><div xmlns="http://www.w3.org/1999/xhtml" class="labelBkg" style="display: table-cell; white-space: nowrap; line-height: 1.5; max-width: 200px; text-align: center;"><span class="edgeLabel"></span></div></foreignObject></g></g><g class="edgeLabel"><g class="label" data-id="L_v91_v90_0" transform="translate(0, 0)"><foreignObject width="0" height="0"><div xmlns="http://www.w3.org/1999/xhtml" class="labelBkg" style="display: table-cell; white-space: nowrap; line-height: 1.5; max-width: 200px; text-align: center;"><span class="edgeLabel"></span></div></foreignObject></g></g><g class="edgeLabel"><g class="label" data-id="L_v75_v91_0" transform="translate(0, 0)"><foreignObject width="0" height="0"><div xmlns="http://www.w3.org/1999/xhtml" class="labelBkg" style="display: table-cell; white-space: nowrap; line-height: 1.5; max-width: 200px; text-align: center;"><span class="edgeLabel"></span></div></foreignObject></g></g><g class="edgeLabel"><g class="label" data-id="L_v75_v92_0" transform="translate(0, 0)"><foreignObject width="0" height="0"><div xmlns="http://www.w3.org/1999/xhtml" class="labelBkg" style="display: table-cell; white-space: nowrap; line-height: 1.5; max-width: 200px; text-align: center;"><span class="edgeLabel"></span></div></foreignObject></g></g><g class="edgeLabel"><g class="label" data-id="L_v91_v92_0" transform="translate(0, 0)"><foreignObject width="0" height="0"><div xmlns="http://www.w3.org/1999/xhtml" class="labelBkg" style="display: table-cell; white-space: nowrap; line-height: 1.5; max-width: 200px; text-align: center;"><span class="edgeLabel"></span></div></foreignObject></g></g></g><g class="nodes"><g class="node default" id="flowchart-v2-0" transform="translate(537.69921875, 859)"><rect class="basic label-container" style="" x="-109.140625" y="-27" width="218.28125" height="54"/><g class="label" style="" transform="translate(-79.140625, -12)"><rect/><foreignObject width="158.28125" height="24"><div xmlns="http://www.w3.org/1999/xhtml" style="display: table-cell; white-space: nowrap; line-height: 1.5; max-width: 200px; text-align: center;"><span class="nodeLabel"><p>wayland-server-core.h</p></span></div></foreignObject></g></g><g class="node default" id="flowchart-v84-1" transform="translate(358.91015625, 651)"><rect class="basic label-container" style="" x="-122.0390625" y="-27" width="244.078125" height="54"/><g class="label" style="" transform="translate(-92.0390625, -12)"><rect/><foreignObject width="184.078125" height="24"><div xmlns="http://www.w3.org/1999/xhtml" style="display: table-cell; white-space: nowrap; line-height: 1.5; max-width: 200px; text-align: center;"><span class="nodeLabel"><p>wayland-server-protocol.h</p></span></div></foreignObject></g></g><g class="node default" id="flowchart-v85-2" transform="translate(358.91015625, 755)"><rect class="basic label-container" style="" x="-90.4765625" y="-27" width="180.953125" height="54"/><g class="label" style="" transform="translate(-60.4765625, -12)"><rect/><foreignObject width="120.953125" height="24"><div xmlns="http://www.w3.org/1999/xhtml" style="display: table-cell; white-space: nowrap; line-height: 1.5; max-width: 200px; text-align: center;"><span class="nodeLabel"><p>wayland-server.h</p></span></div></foreignObject></g></g><g class="node default" id="flowchart-v47-3" transform="translate(86.9140625, 963)"><rect class="basic label-container" style="" x="-78.9140625" y="-27" width="157.828125" height="54"/><g class="label" style="" transform="translate(-48.9140625, -12)"><rect/><foreignObject width="97.828125" height="24"><div xmlns="http://www.w3.org/1999/xhtml" style="display: table-cell; white-space: nowrap; line-height: 1.5; max-width: 200px; text-align: center;"><span class="nodeLabel"><p>wayland-util.h</p></span></div></foreignObject></g></g><g class="node default" id="flowchart-v74-4" transform="translate(579.10546875, 963)"><rect class="basic label-container" style="" x="-94.4765625" y="-27" width="188.953125" height="54"/><g class="label" style="" transform="translate(-64.4765625, -12)"><rect/><foreignObject width="128.953125" height="24"><div xmlns="http://www.w3.org/1999/xhtml" style="display: table-cell; white-space: nowrap; line-height: 1.5; max-width: 200px; text-align: center;"><span class="nodeLabel"><p>wayland-version.h</p></span></div></foreignObject></g></g><g class="node default" id="flowchart-v0-5" transform="translate(399.41015625, 35)"><rect class="basic label-container" style="" x="-125.15625" y="-27" width="250.3125" height="54"/><g class="label" style="" transform="translate(-95.15625, -12)"><rect/><foreignObject width="190.3125" height="24"><div xmlns="http://www.w3.org/1999/xhtml" style="display: table-cell; white-space: nowrap; line-height: 1.5; max-width: 200px; text-align: center;"><span class="nodeLabel"><p>wlroots-0.19/wlr/backend.h</p></span></div></foreignObject></g></g><g class="node default" id="flowchart-v90-6" transform="translate(1343.796875, 535)"><rect class="basic label-container" style="" x="-130" y="-39" width="260" height="78"/><g class="label" style="" transform="translate(-100, -24)"><rect/><foreignObject width="200" height="48"><div xmlns="http://www.w3.org/1999/xhtml" style="display: table; white-space: break-spaces; line-height: 1.5; max-width: 200px; text-align: center; width: 200px;"><span class="nodeLabel"><p>wlroots-0.19/wlr/render/dmabuf.h</p></span></div></foreignObject></g></g><g class="node default" id="flowchart-v87-7" transform="translate(600.65625, 407)"><rect class="basic label-container" style="" x="-130" y="-39" width="260" height="78"/><g class="label" style="" transform="translate(-100, -24)"><rect/><foreignObject width="200" height="48"><div xmlns="http://www.w3.org/1999/xhtml" style="display: table; white-space: break-spaces; line-height: 1.5; max-width: 200px; text-align: center; width: 200px;"><span class="nodeLabel"><p>wlroots-0.19/wlr/render/pass.h</p></span></div></foreignObject></g></g><g class="node default" id="flowchart-v86-8" transform="translate(701.4765625, 279)"><rect class="basic label-container" style="" x="-136.71875" y="-39" width="273.4375" height="78"/><g class="label" style="" transform="translate(-106.71875, -24)"><rect/><foreignObject width="213.4375" height="48"><div xmlns="http://www.w3.org/1999/xhtml" style="display: table; white-space: break-spaces; line-height: 1.5; max-width: 200px; text-align: center; width: 200px;"><span class="nodeLabel"><p>wlroots-0.19/wlr/render/wlr_renderer.h</p></span></div></foreignObject></g></g><g class="node default" id="flowchart-v89-9" transform="translate(1117.80859375, 407)"><rect class="basic label-container" style="" x="-131.375" y="-39" width="262.75" height="78"/><g class="label" style="" transform="translate(-101.375, -24)"><rect/><foreignObject width="202.75" height="48"><div xmlns="http://www.w3.org/1999/xhtml" style="display: table; white-space: break-spaces; line-height: 1.5; max-width: 200px; text-align: center; width: 200px;"><span class="nodeLabel"><p>wlroots-0.19/wlr/render/wlr_texture.h</p></span></div></foreignObject></g></g><g class="node default" id="flowchart-v91-10" transform="translate(1538.796875, 407)"><rect class="basic label-container" style="" x="-130" y="-39" width="260" height="78"/><g class="label" style="" transform="translate(-100, -24)"><rect/><foreignObject width="200" height="48"><div xmlns="http://www.w3.org/1999/xhtml" style="display: table; white-space: break-spaces; line-height: 1.5; max-width: 200px; text-align: center; width: 200px;"><span class="nodeLabel"><p>wlroots-0.19/wlr/types/wlr_buffer.h</p></span></div></foreignObject></g></g><g class="node default" id="flowchart-v75-11" transform="translate(701.4765625, 151)"><rect class="basic label-container" style="" x="-130" y="-39" width="260" height="78"/><g class="label" style="" transform="translate(-100, -24)"><rect/><foreignObject width="200" height="48"><div xmlns="http://www.w3.org/1999/xhtml" style="display: table; white-space: break-spaces; line-height: 1.5; max-width: 200px; text-align: center; width: 200px;"><span class="nodeLabel"><p>wlroots-0.19/wlr/types/wlr_output.h</p></span></div></foreignObject></g></g><g class="node default" id="flowchart-v92-12" transform="translate(1703.796875, 535)"><rect class="basic label-container" style="" x="-129.609375" y="-27" width="259.21875" height="54"/><g class="label" style="" transform="translate(-99.609375, -12)"><rect/><foreignObject width="199.21875" height="24"><div xmlns="http://www.w3.org/1999/xhtml" style="display: table-cell; white-space: nowrap; line-height: 1.5; max-width: 200px; text-align: center;"><span class="nodeLabel"><p>wlroots-0.19/wlr/util/addon.h</p></span></div></foreignObject></g></g><g class="node default" id="flowchart-v88-13" transform="translate(1043.5390625, 535)"><rect class="basic label-container" style="" x="-120.2578125" y="-27" width="240.515625" height="54"/><g class="label" style="" transform="translate(-90.2578125, -12)"><rect/><foreignObject width="180.515625" height="24"><div xmlns="http://www.w3.org/1999/xhtml" style="display: table-cell; white-space: nowrap; line-height: 1.5; max-width: 200px; text-align: center;"><span class="nodeLabel"><p>wlroots-0.19/wlr/util/box.h</p></span></div></foreignObject></g></g><g class="node default" id="flowchart-v77-14" transform="translate(621.86328125, 651)"><rect class="basic label-container" style="" x="-90.9140625" y="-27" width="181.828125" height="54"/><g class="label" style="" transform="translate(-60.9140625, -12)"><rect/><foreignObject width="121.828125" height="24"><div xmlns="http://www.w3.org/1999/xhtml" style="display: table-cell; white-space: nowrap; line-height: 1.5; max-width: 200px; text-align: center;"><span class="nodeLabel"><p>pixman-version.h</p></span></div></foreignObject></g></g><g class="node default" id="flowchart-v76-15" transform="translate(621.86328125, 535)"><rect class="basic label-container" style="" x="-62.4609375" y="-27" width="124.921875" height="54"/><g class="label" style="" transform="translate(-32.4609375, -12)"><rect/><foreignObject width="64.921875" height="24"><div xmlns="http://www.w3.org/1999/xhtml" style="display: table-cell; white-space: nowrap; line-height: 1.5; max-width: 200px; text-align: center;"><span class="nodeLabel"><p>pixman.h</p></span></div></foreignObject></g></g></g></g></g></svg>